<svg width="42" height="26" viewBox="0 0 42 26" fill="none" xmlns="http://www.w3.org/2000/svg">
<path d="M17.9829 0.0717888C16.6546 0.258249 14.7972 0.960211 14.6676 1.33313C14.6244 1.43184 14.8404 1.76089 15.2075 2.16671C15.5315 2.53963 15.9635 3.08803 16.1578 3.38417C16.5574 3.98742 16.579 3.98742 17.8641 3.63644C18.9116 3.35127 20.1103 3.44998 21.0606 3.89968C22.4861 4.5797 23.5876 5.85201 24.0304 7.33271C24.6027 9.24117 23.9332 11.9722 22.2485 14.6046C21.9785 15.0214 21.7518 15.4491 21.7518 15.5479C21.7518 15.9756 23.4688 18.0596 23.8252 18.0596C24.0735 18.0596 25.3802 16.0524 26.1254 14.4949C27.2485 12.1587 27.6372 10.5244 27.5508 8.51727C27.4968 7.10238 27.3781 6.49913 27.0001 5.5449C25.5422 1.87057 21.7194 -0.443714 17.9829 0.0717888Z" fill="#42BD26"/>
<path d="M33.1443 0.159328C31.6756 0.247074 30.1422 0.751608 28.9975 1.49744C28.6303 1.73874 28.3063 1.93617 28.2631 1.93617C28.2307 1.93617 27.9067 1.74971 27.5396 1.51938C26.4705 0.828386 24.6454 0.192232 23.7599 0.181265C23.4791 0.181265 23.5115 0.225138 24.1379 0.630959C25.6173 1.60712 26.9132 3.14267 27.7016 4.83176C28.0795 5.65438 28.1659 5.77503 28.4035 5.77503C28.7923 5.77503 29.0622 5.6105 29.8182 4.8866C30.9197 3.84463 32.1184 3.373 33.6518 3.36203C35.1529 3.36203 36.3516 3.91044 37.4531 5.1279C39.3105 7.16798 39.3645 9.67969 37.6151 13.2224C36.3084 15.8767 34.073 18.52 31.4704 20.4833C30.099 21.5143 28.4899 22.5563 28.2415 22.5563C28.0255 22.5563 26.8268 21.8653 25.7469 21.1195C23.3172 19.4414 21.2113 16.9735 19.8831 14.2753C19.2135 12.9043 18.9435 12.2353 17.896 9.33968C16.5138 5.51179 15.8334 4.18464 14.5267 2.76975C13.4252 1.58519 11.6218 0.598055 10.0451 0.301914C9.01921 0.115456 7.32376 0.148359 6.40584 0.38966C3.30651 1.2013 1.0603 3.51558 0.174783 6.817C-0.0411984 7.62864 -0.0627965 9.83324 0.142385 10.7655C1.31948 16.1838 5.84429 21.7556 11.9242 25.2435C13.0257 25.8797 13.6412 26.0881 14.0516 25.9674C14.9047 25.7151 17.0969 24.388 18.76 23.1267C20.3366 21.9202 20.2826 22.0627 19.4187 21.0537C19.0083 20.582 18.5656 20.0446 18.436 19.8691C18.2632 19.6168 18.166 19.562 18.0472 19.6497C17.9608 19.7046 17.4101 20.1323 16.8161 20.593C15.2611 21.7885 13.922 22.5892 13.6088 22.5124C13.1552 22.4028 10.4879 20.5162 9.27838 19.4633C6.96739 17.4451 5.34753 15.3283 4.15963 12.7837C3.4037 11.1714 3.14452 10.1513 3.14452 8.79127C3.14452 7.12411 3.64128 5.96148 4.82917 4.8208C5.88748 3.80076 6.94579 3.36203 8.36046 3.36203C9.95872 3.36203 11.1142 3.8556 12.2589 5.01822C13.1552 5.92858 13.8356 7.2996 14.9479 10.4365C16.5353 14.9005 17.4317 16.7542 19.1271 19.0684C21.017 21.6569 23.7059 23.8835 26.9348 25.5177C28.1335 26.1319 28.4791 26.1319 29.6022 25.5067C32.14 24.0919 34.1702 22.5673 36.1248 20.582C38.9542 17.7084 40.8656 14.5605 41.6971 11.4017C42.0535 10.0197 42.1075 7.7822 41.7943 6.66345C40.7036 2.63813 37.0535 -0.103909 33.1443 0.159328Z" fill="#E73B3B"/>
</svg>
