<svg width="228" height="68" viewBox="0 0 228 68" fill="none" xmlns="http://www.w3.org/2000/svg">
<path d="M47.0967 0.187214C43.6178 0.674875 38.7531 2.51078 38.4137 3.4861C38.3006 3.74427 38.8663 4.60485 39.8279 5.66623C40.6764 6.64155 41.8077 8.07585 42.3168 8.85037C43.3633 10.4281 43.4199 10.4281 46.7856 9.51015C49.529 8.76431 52.6685 9.02249 55.1574 10.1986C58.8908 11.9771 61.7757 15.3047 62.9353 19.1773C64.4343 24.1687 62.6807 31.3115 58.2686 38.1961C57.5615 39.2862 56.9675 40.4049 56.9675 40.6631C56.9675 41.7818 61.4646 47.2322 62.3979 47.2322C63.0484 47.2322 66.4707 41.9826 68.4222 37.9092C71.3637 31.7991 72.3819 27.5249 72.1556 22.2754C72.0142 18.5749 71.7031 16.9972 70.7132 14.5015C66.8949 4.89171 56.8827 -1.16103 47.0967 0.187214Z" fill="#2E9B0D"/>
<path d="M86.8065 0.416697C82.96 0.646185 78.9437 1.96574 75.9457 3.91638C74.9841 4.54748 74.1356 5.06382 74.0224 5.06382C73.9376 5.06382 73.0891 4.57616 72.1275 3.97376C69.3274 2.16654 64.5476 0.502755 62.2283 0.474069C61.493 0.474069 61.5778 0.588813 63.2183 1.65019C67.0931 4.20324 70.487 8.21928 72.5517 12.6369C73.5416 14.7884 73.7679 15.1039 74.3901 15.1039C75.4083 15.1039 76.1154 14.6736 78.0952 12.7803C80.9801 10.0552 84.1196 8.82168 88.1358 8.793C92.0672 8.793 95.2066 10.2273 98.0915 13.4114C102.956 18.747 103.098 25.3161 98.5157 34.5817C95.0935 41.5237 89.2388 48.437 82.4226 53.5718C78.8306 56.2683 74.6164 58.9934 73.9659 58.9934C73.4002 58.9934 70.2608 57.1862 67.4325 55.2356C61.0687 50.8466 55.5535 44.3923 52.0747 37.3355C50.3211 33.7498 49.614 31.9999 46.8705 24.4268C43.2503 14.4154 41.4685 10.9444 38.0462 7.24396C35.1613 4.14587 30.438 1.56414 26.3086 0.789615C23.6217 0.301953 19.1813 0.388011 16.7772 1.0191C8.6599 3.14186 2.77699 9.1946 0.457764 17.8291C-0.107901 19.9518 -0.164467 25.7177 0.372914 28.156C3.45579 42.3269 15.3065 56.8993 31.2299 66.0215C34.1148 67.6853 35.727 68.2303 36.8017 67.9148C39.0361 67.255 44.7776 63.784 49.1332 60.4851C53.2626 57.3296 53.1211 57.7026 50.8585 55.0634C49.7837 53.8299 48.6241 52.4243 48.2847 51.9654C47.8322 51.3056 47.5776 51.1622 47.2665 51.3916C47.0402 51.5351 45.5978 52.6538 44.0422 53.8586C39.9694 56.9854 36.4623 59.0795 35.6421 58.8787C34.4542 58.5918 27.4682 53.6578 24.3005 50.904C18.2479 45.6258 14.0054 40.0894 10.8943 33.4342C8.91445 29.2174 8.23565 26.5496 8.23565 22.9925C8.23565 18.6323 9.53668 15.5916 12.6478 12.6082C15.4196 9.94044 18.1913 8.793 21.8965 8.793C26.0824 8.793 29.1087 10.0839 32.1067 13.1246C34.4542 15.5055 36.2361 19.0913 39.1492 27.2954C43.3069 38.9706 45.6544 43.8185 50.0948 49.8713C55.0444 56.6412 62.0869 62.4644 70.5436 66.7386C73.6831 68.345 74.5881 68.345 77.5296 66.7099C84.1761 63.0095 89.4934 59.0221 94.6126 53.8299C102.023 46.3142 107.029 38.0814 109.207 29.8198C110.14 26.2054 110.282 20.3534 109.461 17.4275C106.605 6.89972 97.045 -0.271766 86.8065 0.416697Z" fill="#A82C38"/>
<path d="M129.835 42V7.09091H135.102V22.2614H152.506V7.09091H157.79V42H152.506V26.7784H135.102V42H129.835Z" fill="#A82C38"/>
<path d="M165.358 42V38.1818L177.17 25.9432C178.432 24.6136 179.472 23.4489 180.29 22.4489C181.119 21.4375 181.739 20.4773 182.148 19.5682C182.557 18.6591 182.761 17.6932 182.761 16.6705C182.761 15.5114 182.489 14.5114 181.943 13.6705C181.398 12.8182 180.653 12.1648 179.71 11.7102C178.767 11.2443 177.705 11.0114 176.523 11.0114C175.273 11.0114 174.182 11.267 173.25 11.7784C172.318 12.2898 171.602 13.0114 171.102 13.9432C170.602 14.875 170.352 15.9659 170.352 17.2159H165.324C165.324 15.0909 165.813 13.233 166.79 11.642C167.767 10.0511 169.108 8.81818 170.812 7.94318C172.517 7.05682 174.455 6.61364 176.625 6.61364C178.818 6.61364 180.75 7.05114 182.42 7.92614C184.102 8.78977 185.415 9.97159 186.358 11.4716C187.301 12.9602 187.773 14.642 187.773 16.517C187.773 17.8125 187.528 19.0795 187.04 20.3182C186.563 21.5568 185.727 22.9375 184.534 24.4602C183.341 25.9716 181.682 27.8068 179.557 29.9659L172.619 37.2273V37.483H188.335V42H165.358Z" fill="#2E9B0D"/>
<path d="M195.835 42V7.09091H201.102V22.2614H218.506V7.09091H223.79V42H218.506V26.7784H201.102V42H195.835Z" fill="#A82C38"/>
<path d="M129.598 60V46.9091H137.447V48.3153H131.183V52.7386H136.859V54.1449H131.183V60H129.598ZM143.226 60.2045C142.339 60.2045 141.562 59.9936 140.893 59.5717C140.228 59.1499 139.708 58.5597 139.333 57.8011C138.962 57.0426 138.777 56.1562 138.777 55.142C138.777 54.1193 138.962 53.2266 139.333 52.4638C139.708 51.701 140.228 51.1087 140.893 50.6868C141.562 50.2649 142.339 50.054 143.226 50.054C144.112 50.054 144.888 50.2649 145.552 50.6868C146.222 51.1087 146.741 51.701 147.112 52.4638C147.487 53.2266 147.675 54.1193 147.675 55.142C147.675 56.1562 147.487 57.0426 147.112 57.8011C146.741 58.5597 146.222 59.1499 145.552 59.5717C144.888 59.9936 144.112 60.2045 143.226 60.2045ZM143.226 58.8494C143.899 58.8494 144.453 58.6768 144.888 58.3317C145.322 57.9865 145.644 57.5327 145.853 56.9702C146.062 56.4077 146.166 55.7983 146.166 55.142C146.166 54.4858 146.062 53.8743 145.853 53.3075C145.644 52.7408 145.322 52.2827 144.888 51.9332C144.453 51.5838 143.899 51.4091 143.226 51.4091C142.552 51.4091 141.998 51.5838 141.564 51.9332C141.129 52.2827 140.807 52.7408 140.599 53.3075C140.39 53.8743 140.285 54.4858 140.285 55.142C140.285 55.7983 140.39 56.4077 140.599 56.9702C140.807 57.5327 141.129 57.9865 141.564 58.3317C141.998 58.6768 142.552 58.8494 143.226 58.8494ZM156.165 55.9858V50.1818H157.673V60H156.165V58.3381H156.063C155.832 58.8366 155.475 59.2607 154.989 59.6101C154.503 59.9553 153.889 60.1278 153.148 60.1278C152.534 60.1278 151.989 59.9936 151.511 59.7251C151.034 59.4524 150.659 59.0433 150.386 58.4979C150.114 57.9482 149.977 57.2557 149.977 56.4205V50.1818H151.486V56.3182C151.486 57.0341 151.686 57.6051 152.087 58.0312C152.492 58.4574 153.007 58.6705 153.634 58.6705C154.009 58.6705 154.39 58.5746 154.778 58.3828C155.17 58.1911 155.498 57.897 155.762 57.5007C156.031 57.1044 156.165 56.5994 156.165 55.9858ZM161.945 54.0938V60H160.436V50.1818H161.894V51.7159H162.022C162.252 51.2173 162.601 50.8168 163.07 50.5142C163.539 50.2074 164.144 50.054 164.885 50.054C165.55 50.054 166.132 50.1903 166.63 50.4631C167.129 50.7315 167.517 51.1406 167.794 51.6903C168.071 52.2358 168.209 52.9261 168.209 53.7614V60H166.701V53.8636C166.701 53.0923 166.5 52.4915 166.1 52.0611C165.699 51.6264 165.149 51.4091 164.451 51.4091C163.969 51.4091 163.539 51.5135 163.159 51.7223C162.784 51.9311 162.488 52.2358 162.271 52.6364C162.054 53.0369 161.945 53.5227 161.945 54.0938ZM174.673 60.2045C173.855 60.2045 173.133 59.9979 172.506 59.5845C171.88 59.1669 171.39 58.5788 171.036 57.8203C170.682 57.0575 170.505 56.1562 170.505 55.1165C170.505 54.0852 170.682 53.1903 171.036 52.4318C171.39 51.6733 171.882 51.0874 172.513 50.674C173.143 50.2607 173.872 50.054 174.699 50.054C175.338 50.054 175.843 50.1605 176.214 50.3736C176.589 50.5824 176.874 50.821 177.07 51.0895C177.27 51.3537 177.426 51.571 177.537 51.7415H177.665V46.9091H179.173V60H177.716V58.4915H177.537C177.426 58.6705 177.268 58.8963 177.064 59.169C176.859 59.4375 176.567 59.6783 176.188 59.8913C175.809 60.1001 175.304 60.2045 174.673 60.2045ZM174.878 58.8494C175.483 58.8494 175.994 58.6918 176.412 58.3764C176.829 58.0568 177.147 57.6158 177.364 57.0533C177.581 56.4865 177.69 55.8324 177.69 55.0909C177.69 54.358 177.584 53.7166 177.37 53.1669C177.157 52.6129 176.842 52.1825 176.424 51.8757C176.007 51.5646 175.491 51.4091 174.878 51.4091C174.238 51.4091 173.706 51.5732 173.28 51.9013C172.858 52.2251 172.54 52.6662 172.327 53.2244C172.118 53.7784 172.014 54.4006 172.014 55.0909C172.014 55.7898 172.12 56.4247 172.334 56.9957C172.551 57.5625 172.87 58.0142 173.292 58.3509C173.718 58.6832 174.247 58.8494 174.878 58.8494ZM185.035 60.2301C184.412 60.2301 183.848 60.1129 183.341 59.8786C182.834 59.6399 182.431 59.2969 182.133 58.8494C181.834 58.3977 181.685 57.8523 181.685 57.2131C181.685 56.6506 181.796 56.1946 182.017 55.8452C182.239 55.4915 182.535 55.2145 182.906 55.0142C183.277 54.8139 183.686 54.6648 184.133 54.5668C184.585 54.4645 185.039 54.3835 185.495 54.3239C186.091 54.2472 186.575 54.1896 186.946 54.1513C187.321 54.1087 187.593 54.0384 187.764 53.9403C187.939 53.8423 188.026 53.6719 188.026 53.429V53.3778C188.026 52.7472 187.853 52.2571 187.508 51.9077C187.167 51.5582 186.65 51.3835 185.955 51.3835C185.235 51.3835 184.67 51.5412 184.261 51.8565C183.852 52.1719 183.564 52.5085 183.398 52.8665L181.966 52.3551C182.222 51.7585 182.563 51.294 182.989 50.9616C183.419 50.625 183.888 50.3906 184.395 50.2585C184.907 50.1222 185.41 50.054 185.904 50.054C186.219 50.054 186.581 50.0923 186.991 50.169C187.404 50.2415 187.802 50.3928 188.186 50.6229C188.574 50.853 188.895 51.2003 189.151 51.6648C189.407 52.1293 189.535 52.7514 189.535 53.5312V60H188.026V58.6705H187.949C187.847 58.8835 187.677 59.1115 187.438 59.3544C187.199 59.5973 186.882 59.804 186.486 59.9744C186.089 60.1449 185.606 60.2301 185.035 60.2301ZM185.265 58.875C185.861 58.875 186.364 58.7578 186.773 58.5234C187.187 58.2891 187.498 57.9865 187.706 57.6158C187.919 57.245 188.026 56.8551 188.026 56.446V55.0653C187.962 55.142 187.821 55.2124 187.604 55.2763C187.391 55.3359 187.144 55.3892 186.863 55.4361C186.586 55.4787 186.315 55.517 186.051 55.5511C185.791 55.581 185.58 55.6065 185.418 55.6278C185.026 55.679 184.66 55.7621 184.319 55.8771C183.982 55.9879 183.709 56.1562 183.5 56.3821C183.296 56.6037 183.194 56.9062 183.194 57.2898C183.194 57.8139 183.388 58.2102 183.775 58.4787C184.167 58.7429 184.664 58.875 185.265 58.875ZM196.558 50.1818V51.4602H191.47V50.1818H196.558ZM192.953 47.8295H194.461V57.1875C194.461 57.6136 194.523 57.9332 194.647 58.1463C194.774 58.3551 194.936 58.4957 195.132 58.5682C195.333 58.6364 195.544 58.6705 195.765 58.6705C195.931 58.6705 196.068 58.6619 196.174 58.6449C196.281 58.6236 196.366 58.6065 196.43 58.5938L196.737 59.9489C196.634 59.9872 196.492 60.0256 196.309 60.0639C196.125 60.1065 195.893 60.1278 195.612 60.1278C195.186 60.1278 194.768 60.0362 194.359 59.853C193.954 59.6697 193.617 59.3906 193.349 59.0156C193.085 58.6406 192.953 58.1676 192.953 57.5966V47.8295ZM198.827 60V50.1818H200.335V60H198.827ZM199.594 48.5455C199.3 48.5455 199.046 48.4453 198.833 48.245C198.625 48.0447 198.52 47.804 198.52 47.5227C198.52 47.2415 198.625 47.0007 198.833 46.8004C199.046 46.6001 199.3 46.5 199.594 46.5C199.888 46.5 200.139 46.6001 200.348 46.8004C200.561 47.0007 200.668 47.2415 200.668 47.5227C200.668 47.804 200.561 48.0447 200.348 48.245C200.139 48.4453 199.888 48.5455 199.594 48.5455ZM207.087 60.2045C206.201 60.2045 205.423 59.9936 204.754 59.5717C204.089 59.1499 203.569 58.5597 203.194 57.8011C202.824 57.0426 202.638 56.1562 202.638 55.142C202.638 54.1193 202.824 53.2266 203.194 52.4638C203.569 51.701 204.089 51.1087 204.754 50.6868C205.423 50.2649 206.201 50.054 207.087 50.054C207.973 50.054 208.749 50.2649 209.414 50.6868C210.083 51.1087 210.603 51.701 210.973 52.4638C211.348 53.2266 211.536 54.1193 211.536 55.142C211.536 56.1562 211.348 57.0426 210.973 57.8011C210.603 58.5597 210.083 59.1499 209.414 59.5717C208.749 59.9936 207.973 60.2045 207.087 60.2045ZM207.087 58.8494C207.76 58.8494 208.314 58.6768 208.749 58.3317C209.184 57.9865 209.505 57.5327 209.714 56.9702C209.923 56.4077 210.027 55.7983 210.027 55.142C210.027 54.4858 209.923 53.8743 209.714 53.3075C209.505 52.7408 209.184 52.2827 208.749 51.9332C208.314 51.5838 207.76 51.4091 207.087 51.4091C206.414 51.4091 205.86 51.5838 205.425 51.9332C204.991 52.2827 204.669 52.7408 204.46 53.3075C204.251 53.8743 204.147 54.4858 204.147 55.142C204.147 55.7983 204.251 56.4077 204.46 56.9702C204.669 57.5327 204.991 57.9865 205.425 58.3317C205.86 58.6768 206.414 58.8494 207.087 58.8494ZM215.347 54.0938V60H213.839V50.1818H215.296V51.7159H215.424C215.654 51.2173 216.003 50.8168 216.472 50.5142C216.941 50.2074 217.546 50.054 218.288 50.054C218.952 50.054 219.534 50.1903 220.033 50.4631C220.531 50.7315 220.919 51.1406 221.196 51.6903C221.473 52.2358 221.611 52.9261 221.611 53.7614V60H220.103V53.8636C220.103 53.0923 219.903 52.4915 219.502 52.0611C219.101 51.6264 218.552 51.4091 217.853 51.4091C217.371 51.4091 216.941 51.5135 216.562 51.7223C216.187 51.9311 215.891 52.2358 215.673 52.6364C215.456 53.0369 215.347 53.5227 215.347 54.0938Z" fill="#A82C38"/>
<rect x="117" y="1" width="6" height="66" fill="#A82C38"/>
</svg>
